<svg width="25" height="25" viewBox="0 0 25 25" fill="none" xmlns="http://www.w3.org/2000/svg">
<g id="google">
<path id="vector" d="M23.4384 12.7429C23.4384 11.8436 23.3639 11.1874 23.2028 10.5068H12.7241V14.5658H18.8749C18.7509 15.5745 18.0813 17.0936 16.5931 18.1144L16.5723 18.2503L19.8854 20.7656L20.115 20.7881C22.2231 18.8801 23.4384 16.0728 23.4384 12.7429Z" fill="#4285F4"/>
<path id="vector_2" d="M12.7236 23.4375C15.737 23.4375 18.2667 22.4652 20.1145 20.7882L16.5926 18.1144C15.6502 18.7586 14.3853 19.2082 12.7236 19.2082C9.77229 19.2082 7.26735 17.3003 6.37442 14.6631L6.24353 14.674L2.79847 17.2869L2.75342 17.4096C4.58871 20.9825 8.35854 23.4375 12.7236 23.4375Z" fill="#34A853"/>
<path id="vector_3" d="M6.37493 14.6632C6.13932 13.9826 6.00296 13.2534 6.00296 12.5C6.00296 11.7464 6.13932 11.0173 6.36254 10.3368L6.35629 10.1918L2.86805 7.53699L2.75392 7.59019C1.99751 9.07284 1.56348 10.7378 1.56348 12.5C1.56348 14.2621 1.99751 15.927 2.75392 17.4096L6.37493 14.6632Z" fill="#FBBC05"/>
<path id="vector_4" d="M12.7237 5.79164C14.8194 5.79164 16.2331 6.67879 17.0392 7.42016L20.189 4.40625C18.2545 2.6441 15.7371 1.5625 12.7237 1.5625C8.35858 1.5625 4.58872 4.01734 2.75342 7.59023L6.36204 10.3368C7.26738 7.69965 9.77233 5.79164 12.7237 5.79164Z" fill="#EB4335"/>
</g>
</svg>
